<?xml version="1.0" encoding="UTF-8" standalone="no"?>
<!DOCTYPE svg PUBLIC "-//W3C//DTD SVG 1.1//EN" "http://www.w3.org/Graphics/SVG/1.1/DTD/svg11.dtd">
<svg width="100%" height="100%" viewBox="0 0 152 53" version="1.1" xmlns="http://www.w3.org/2000/svg" xmlns:xlink="http://www.w3.org/1999/xlink" xml:space="preserve" xmlns:serif="http://www.serif.com/" style="fill-rule:evenodd;clip-rule:evenodd;stroke-linejoin:round;stroke-miterlimit:1.5;">
    <g transform="matrix(1,0,0,1,-1438.1,-3581.32)">
        <g transform="matrix(0.731306,0,0,0.927136,321.02,-384.796)">
            <g id="car-blue" transform="matrix(0.60896,0,0,0.480335,1525.98,2637.38)">
                <g transform="matrix(1,0,0,0.940299,0,206.357)">
                    <ellipse cx="324.379" cy="3470.26" rx="15.706" ry="5.509" style="fill:rgb(247,71,29);stroke:rgb(0,106,250);stroke-width:2.31px;"/>
                </g>
                <g transform="matrix(0.965926,-0.258819,0.334199,1.24725,-1158.17,-854.86)">
                    <ellipse cx="18.345" cy="3467.84" rx="10.021" ry="8.89" style="fill:rgb(255,245,174);stroke:rgb(0,106,250);stroke-width:1.94px;"/>
                </g>
                <path d="M113.335,3432.18C107.364,3438.91 99.024,3443.08 90.056,3443.8C66.08,3445.75 19.086,3449.57 13.042,3450.06C12.465,3450.11 11.921,3450.34 11.496,3450.74C9.777,3452.65 9.559,3455.71 10.568,3458.57L17.916,3471.41L17.916,3474.07C17.916,3478.7 15.217,3482.9 11.01,3484.82C11.009,3484.82 11.009,3484.82 11.009,3484.82L11.009,3485.88C11.009,3487.67 11.719,3489.38 12.982,3490.65C14.244,3491.91 15.957,3492.62 17.743,3492.62C27.741,3492.62 45.345,3492.62 45.345,3492.62L45.345,3506.68L55.288,3506.68C57.487,3497.49 60.864,3492.49 66.682,3490.25C70.412,3488.77 74.497,3488.42 78.426,3489.24C88.819,3491.39 92.951,3495.6 94.911,3506.09L237.809,3506.09C239.773,3493.62 239.189,3493.02 253.409,3486.99C253.8,3486.82 254.236,3486.8 254.641,3486.93C269.967,3491.23 269.212,3493.58 271.825,3506.34L309.16,3506.34L309.16,3494.2L330.357,3494.2C325.393,3487.79 323.156,3480.73 324.769,3472.75C328.763,3465.61 334.144,3460.17 341.014,3456.57C343.003,3455.56 343.918,3453.21 343.143,3451.11C342.284,3448.74 339.365,3447.67 334.856,3447.62C334.851,3447.62 334.847,3447.62 334.843,3447.62C334.824,3447.62 318.642,3447.62 304.906,3447.62C292.676,3447.62 280.84,3443.3 271.485,3435.42C265.554,3430.43 258.978,3424.89 254.202,3420.87C249.828,3417.19 244.293,3415.17 238.575,3415.17L140.767,3415.17C132.923,3415.17 125.454,3418.52 120.248,3424.39C118.029,3426.89 115.611,3429.62 113.335,3432.18Z" style="fill:rgb(0,62,146);"/>
                <clipPath id="_clip1">
                    <path d="M113.335,3432.18C107.364,3438.91 99.024,3443.08 90.056,3443.8C66.08,3445.75 19.086,3449.57 13.042,3450.06C12.465,3450.11 11.921,3450.34 11.496,3450.74C9.777,3452.65 9.559,3455.71 10.568,3458.57L17.916,3471.41L17.916,3474.07C17.916,3478.7 15.217,3482.9 11.01,3484.82C11.009,3484.82 11.009,3484.82 11.009,3484.82L11.009,3485.88C11.009,3487.67 11.719,3489.38 12.982,3490.65C14.244,3491.91 15.957,3492.62 17.743,3492.62C27.741,3492.62 45.345,3492.62 45.345,3492.62L45.345,3506.68L55.288,3506.68C57.487,3497.49 60.864,3492.49 66.682,3490.25C70.412,3488.77 74.497,3488.42 78.426,3489.24C88.819,3491.39 92.951,3495.6 94.911,3506.09L237.809,3506.09C239.773,3493.62 239.189,3493.02 253.409,3486.99C253.8,3486.82 254.236,3486.8 254.641,3486.93C269.967,3491.23 269.212,3493.58 271.825,3506.34L309.16,3506.34L309.16,3494.2L330.357,3494.2C325.393,3487.79 323.156,3480.73 324.769,3472.75C328.763,3465.61 334.144,3460.17 341.014,3456.57C343.003,3455.56 343.918,3453.21 343.143,3451.11C342.284,3448.74 339.365,3447.67 334.856,3447.62C334.851,3447.62 334.847,3447.62 334.843,3447.62C334.824,3447.62 318.642,3447.62 304.906,3447.62C292.676,3447.62 280.84,3443.3 271.485,3435.42C265.554,3430.43 258.978,3424.89 254.202,3420.87C249.828,3417.19 244.293,3415.17 238.575,3415.17L140.767,3415.17C132.923,3415.17 125.454,3418.52 120.248,3424.39C118.029,3426.89 115.611,3429.62 113.335,3432.18Z"/>
                </clipPath>
                <g clip-path="url(#_clip1)">
                    <g transform="matrix(1.10142,0,0,1.1127,-17.9198,-387.338)">
                        <path d="M98.584,3442.67L176.694,3442.67L172.23,3415.17L128.574,3415.17L98.584,3442.67Z" style="fill:rgb(197,225,252);stroke:rgb(0,106,250);stroke-width:2.03px;"/>
                    </g>
                </g>
                <g>
                    <g transform="matrix(2.0365,0,0,2.0219,-79.5415,-3584.87)">
                        <circle cx="76.276" cy="3508.52" r="11" style="fill:rgb(74,99,106);stroke:rgb(0,106,250);stroke-width:1.11px;"/>
                    </g>
                    <g transform="matrix(1,0,0,1,-0.481755,0.481767)">
                        <circle cx="76.276" cy="3508.52" r="11" style="fill:rgb(234,247,255);stroke:rgb(0,106,250);stroke-width:2.25px;"/>
                    </g>
                </g>
                <g transform="matrix(1,0,0,1,178.876,4.54747e-13)">
                    <g transform="matrix(2.0365,0,0,2.0219,-79.5415,-3584.87)">
                        <circle cx="76.276" cy="3508.52" r="11" style="fill:rgb(74,99,106);stroke:rgb(0,106,250);stroke-width:1.11px;"/>
                    </g>
                    <g transform="matrix(1,0,0,1,-0.481755,0.481767)">
                        <circle cx="76.276" cy="3508.52" r="11" style="fill:rgb(234,247,255);stroke:rgb(0,106,250);stroke-width:2.25px;"/>
                    </g>
                </g>
                <g transform="matrix(0.766666,0,0,1,301.078,-0.898067)">
                    <path d="M44.954,3497.34C44.954,3495.28 42.773,3493.61 40.087,3493.61L12.82,3493.61C10.135,3493.61 7.954,3495.28 7.954,3497.34L7.954,3504.8C7.954,3506.86 10.135,3508.53 12.82,3508.53L40.087,3508.53C42.773,3508.53 44.954,3506.86 44.954,3504.8L44.954,3497.34Z" style="fill:rgb(167,205,234);stroke:rgb(0,106,250);stroke-width:2.52px;"/>
                </g>
                <g transform="matrix(1.20975,0,0,1.06405,-5.97587,-225.636)">
                    <path d="M44.954,3497.34C44.954,3495.28 43.483,3493.61 41.672,3493.61L11.236,3493.61C9.425,3493.61 7.954,3495.28 7.954,3497.34L7.954,3504.8C7.954,3506.86 9.425,3508.53 11.236,3508.53L41.672,3508.53C43.483,3508.53 44.954,3506.86 44.954,3504.8L44.954,3497.34Z" style="fill:rgb(167,205,234);stroke:rgb(0,106,250);stroke-width:1.97px;"/>
                </g>
            </g>
        </g>
    </g>
</svg>
