<?xml version="1.0" encoding="UTF-8" standalone="no"?>
<!DOCTYPE svg PUBLIC "-//W3C//DTD SVG 1.1//EN" "http://www.w3.org/Graphics/SVG/1.1/DTD/svg11.dtd">
<svg width="100%" height="100%" viewBox="0 0 372 80" version="1.1" xmlns="http://www.w3.org/2000/svg" xmlns:xlink="http://www.w3.org/1999/xlink" xml:space="preserve" xmlns:serif="http://www.serif.com/" style="fill-rule:evenodd;clip-rule:evenodd;stroke-linejoin:round;stroke-miterlimit:2;">
    <g transform="matrix(1,0,0,1,-340.086,-4114.28)">
        <g transform="matrix(0.731306,0,0,0.927136,321.02,948.264)">
            <g id="cloud-large" transform="matrix(2.04731,0,0,1.61487,2941.39,1475.49)">
                <path d="M-1423.98,1252.68C-1399.71,1246.72 -1380.62,1223.84 -1357,1215.7C-1349.11,1212.98 -1338.73,1209.65 -1330.45,1212.34C-1322.33,1214.98 -1316.14,1222.74 -1306.96,1221.84C-1298.96,1221.05 -1292.12,1215.31 -1284.69,1212.65C-1269.46,1207.2 -1257.65,1200.8 -1241.44,1200.93C-1230.78,1201.01 -1216.26,1210.96 -1213.43,1221.23C-1212,1226.4 -1212.81,1233.09 -1208.28,1236.79C-1206.6,1238.16 -1204.52,1238.85 -1202.37,1238.98C-1200.39,1239.09 -1198.43,1238.71 -1196.46,1238.64C-1194.82,1238.58 -1193.29,1238.59 -1191.65,1238.68C-1187.58,1238.91 -1172.52,1243.34 -1176.88,1249.92C-1179.35,1253.66 -1190.34,1251.83 -1194.68,1252.32C-1204.65,1253.44 -1214.81,1253.1 -1224.82,1253.14C-1236.35,1253.19 -1247.87,1253.76 -1259.4,1253.74C-1280.19,1253.7 -1300.98,1252.99 -1321.77,1252.97C-1340.67,1252.96 -1359.55,1251.8 -1378.45,1251.7C-1393.64,1251.62 -1408.79,1252.58 -1423.98,1252.68Z" style="fill:rgb(234,244,254);"/>
            </g>
        </g>
    </g>
</svg>
