<?xml version="1.0" encoding="UTF-8" standalone="no"?>
<!DOCTYPE svg PUBLIC "-//W3C//DTD SVG 1.1//EN" "http://www.w3.org/Graphics/SVG/1.1/DTD/svg11.dtd">
<svg width="100%" height="100%" viewBox="0 0 671 85" version="1.1" xmlns="http://www.w3.org/2000/svg" xmlns:xlink="http://www.w3.org/1999/xlink" xml:space="preserve" xmlns:serif="http://www.serif.com/" style="fill-rule:evenodd;clip-rule:evenodd;stroke-linejoin:round;stroke-miterlimit:1.5;">
    <g transform="matrix(1,0,0,1,-952.869,-4985.84)">
        <g transform="matrix(0.731306,0,0,0.927136,321.02,948.264)">
            <g id="train" transform="matrix(1.31347,0,0,1.03603,-3686.23,4485.21)">
                <g transform="matrix(0.908012,0,0,1,373.19,2.51073)">
                    <path d="M3784.02,-128.038L3445.24,-128.038C3435.63,-128.038 3427.04,-122.596 3423.72,-114.407C3416.44,-96.434 3404.54,-67.063 3404.54,-67.063L3784.02,-67.063L3784.02,-128.038Z" style="fill:rgb(118,172,244);"/>
                    <clipPath id="_clip1">
                        <path d="M3784.02,-128.038L3445.24,-128.038C3435.63,-128.038 3427.04,-122.596 3423.72,-114.407C3416.44,-96.434 3404.54,-67.063 3404.54,-67.063L3784.02,-67.063L3784.02,-128.038Z"/>
                    </clipPath>
                    <g clip-path="url(#_clip1)">
                        <g transform="matrix(1.46552,0,0,0.327273,-2107.55,-79.8578)">
                            <path d="M3792.24,-76.755C3793.51,-84.55 3793.63,-94.562 3792.54,-102.809C3791.45,-111.055 3789.34,-116.202 3787.04,-116.202C3781.07,-116.202 3775.05,-116.202 3775.05,-116.202L3769.55,-76.747L3792.24,-76.747C3792.24,-76.747 3792.24,-76.75 3792.24,-76.755Z" style="fill:rgb(195,224,252);stroke:rgb(0,105,253);stroke-width:0.54px;"/>
                        </g>
                    </g>
                    <path d="M3784.02,-128.038L3445.24,-128.038C3435.63,-128.038 3427.04,-122.596 3423.72,-114.407C3416.44,-96.434 3404.54,-67.063 3404.54,-67.063L3784.02,-67.063L3784.02,-128.038Z" style="fill:none;stroke:rgb(0,105,253);stroke-width:0.55px;"/>
                </g>
                <g transform="matrix(0.942837,0,0,0.919308,217.741,-7.16899)">
                    <path d="M3809.12,-95.04L3469.88,-95.04L3502.16,-82.648L3809.12,-82.648L3809.12,-95.04Z" style="fill:rgb(0,105,253);stroke:rgb(0,105,253);stroke-width:0.56px;"/>
                </g>
                <g transform="matrix(1.46552,0,0,0.327273,-1761.74,-77.4547)">
                    <path d="M3795.85,-103.477C3795.85,-106.852 3795.55,-110.089 3795.02,-112.475C3794.49,-114.861 3793.76,-116.202 3793.01,-116.202C3789.04,-116.202 3781.86,-116.202 3777.89,-116.202C3777.14,-116.202 3776.41,-114.861 3775.88,-112.475C3775.35,-110.089 3775.05,-106.852 3775.05,-103.477C3775.05,-98.994 3775.05,-93.955 3775.05,-89.472C3775.05,-86.097 3775.35,-82.861 3775.88,-80.474C3776.41,-78.088 3777.14,-76.747 3777.89,-76.747C3781.86,-76.747 3789.04,-76.747 3793.01,-76.747C3793.76,-76.747 3794.49,-78.088 3795.02,-80.474C3795.55,-82.861 3795.85,-86.097 3795.85,-89.472C3795.85,-93.955 3795.85,-98.994 3795.85,-103.477Z" style="fill:rgb(195,224,252);stroke:rgb(0,105,253);stroke-width:0.49px;"/>
                </g>
                <g transform="matrix(1.46552,0,0,0.327273,-1832.83,-77.3471)">
                    <path d="M3795.85,-103.477C3795.85,-106.852 3795.55,-110.089 3795.02,-112.475C3794.49,-114.861 3793.76,-116.202 3793.01,-116.202C3789.04,-116.202 3781.86,-116.202 3777.89,-116.202C3777.14,-116.202 3776.41,-114.861 3775.88,-112.475C3775.35,-110.089 3775.05,-106.852 3775.05,-103.477C3775.05,-98.994 3775.05,-93.955 3775.05,-89.472C3775.05,-86.097 3775.35,-82.861 3775.88,-80.474C3776.41,-78.088 3777.14,-76.747 3777.89,-76.747C3781.86,-76.747 3789.04,-76.747 3793.01,-76.747C3793.76,-76.747 3794.49,-78.088 3795.02,-80.474C3795.55,-82.861 3795.85,-86.097 3795.85,-89.472C3795.85,-93.955 3795.85,-98.994 3795.85,-103.477Z" style="fill:rgb(195,224,252);stroke:rgb(0,105,253);stroke-width:0.49px;"/>
                </g>
                <g transform="matrix(1.46552,0,0,0.327273,-1870.41,-77.4547)">
                    <path d="M3795.85,-103.477C3795.85,-106.852 3795.55,-110.089 3795.02,-112.475C3794.49,-114.861 3793.76,-116.202 3793.01,-116.202C3789.04,-116.202 3781.86,-116.202 3777.89,-116.202C3777.14,-116.202 3776.41,-114.861 3775.88,-112.475C3775.35,-110.089 3775.05,-106.852 3775.05,-103.477C3775.05,-98.994 3775.05,-93.955 3775.05,-89.472C3775.05,-86.097 3775.35,-82.861 3775.88,-80.474C3776.41,-78.088 3777.14,-76.747 3777.89,-76.747C3781.86,-76.747 3789.04,-76.747 3793.01,-76.747C3793.76,-76.747 3794.49,-78.088 3795.02,-80.474C3795.55,-82.861 3795.85,-86.097 3795.85,-89.472C3795.85,-93.955 3795.85,-98.994 3795.85,-103.477Z" style="fill:rgb(195,224,252);stroke:rgb(0,105,253);stroke-width:0.49px;"/>
                </g>
                <g transform="matrix(1.46552,0,0,0.327273,-1907.67,-77.4547)">
                    <path d="M3795.85,-103.477C3795.85,-106.852 3795.55,-110.089 3795.02,-112.475C3794.49,-114.861 3793.76,-116.202 3793.01,-116.202C3789.04,-116.202 3781.86,-116.202 3777.89,-116.202C3777.14,-116.202 3776.41,-114.861 3775.88,-112.475C3775.35,-110.089 3775.05,-106.852 3775.05,-103.477C3775.05,-98.994 3775.05,-93.955 3775.05,-89.472C3775.05,-86.097 3775.35,-82.861 3775.88,-80.474C3776.41,-78.088 3777.14,-76.747 3777.89,-76.747C3781.86,-76.747 3789.04,-76.747 3793.01,-76.747C3793.76,-76.747 3794.49,-78.088 3795.02,-80.474C3795.55,-82.861 3795.85,-86.097 3795.85,-89.472C3795.85,-93.955 3795.85,-98.994 3795.85,-103.477Z" style="fill:rgb(195,224,252);stroke:rgb(0,105,253);stroke-width:0.49px;"/>
                </g>
                <g transform="matrix(1.46552,0,0,0.327273,-1979.22,-77.3471)">
                    <path d="M3795.85,-103.477C3795.85,-106.852 3795.55,-110.089 3795.02,-112.475C3794.49,-114.861 3793.76,-116.202 3793.01,-116.202C3789.04,-116.202 3781.86,-116.202 3777.89,-116.202C3777.14,-116.202 3776.41,-114.861 3775.88,-112.475C3775.35,-110.089 3775.05,-106.852 3775.05,-103.477C3775.05,-98.994 3775.05,-93.955 3775.05,-89.472C3775.05,-86.097 3775.35,-82.861 3775.88,-80.474C3776.41,-78.088 3777.14,-76.747 3777.89,-76.747C3781.86,-76.747 3789.04,-76.747 3793.01,-76.747C3793.76,-76.747 3794.49,-78.088 3795.02,-80.474C3795.55,-82.861 3795.85,-86.097 3795.85,-89.472C3795.85,-93.955 3795.85,-98.994 3795.85,-103.477Z" style="fill:rgb(195,224,252);stroke:rgb(0,105,253);stroke-width:0.49px;"/>
                </g>
                <g transform="matrix(1.46552,0,0,0.327273,-2016.8,-77.4547)">
                    <path d="M3795.85,-103.477C3795.85,-106.852 3795.55,-110.089 3795.02,-112.475C3794.49,-114.861 3793.76,-116.202 3793.01,-116.202C3789.04,-116.202 3781.86,-116.202 3777.89,-116.202C3777.14,-116.202 3776.41,-114.861 3775.88,-112.475C3775.35,-110.089 3775.05,-106.852 3775.05,-103.477C3775.05,-98.994 3775.05,-93.955 3775.05,-89.472C3775.05,-86.097 3775.35,-82.861 3775.88,-80.474C3776.41,-78.088 3777.14,-76.747 3777.89,-76.747C3781.86,-76.747 3789.04,-76.747 3793.01,-76.747C3793.76,-76.747 3794.49,-78.088 3795.02,-80.474C3795.55,-82.861 3795.85,-86.097 3795.85,-89.472C3795.85,-93.955 3795.85,-98.994 3795.85,-103.477Z" style="fill:rgb(195,224,252);stroke:rgb(0,105,253);stroke-width:0.49px;"/>
                </g>
                <g transform="matrix(1,0,0,0.990697,0,-0.600505)">
                    <rect x="3464.55" y="-64.553" width="344.571" height="14.714" style="fill:rgb(0,105,253);stroke:rgb(0,105,253);stroke-width:0.52px;"/>
                </g>
                <g transform="matrix(0.908144,0,0,1.05829,349.771,4.36024)">
                    <path d="M3809.26,-74.811L3434.04,-74.811L3429.83,-65.117L3809.26,-65.215L3809.26,-74.811Z" style="fill:rgb(198,223,254);stroke:rgb(0,105,253);stroke-width:0.53px;"/>
                </g>
                <g transform="matrix(1,0,0,1.2522,-144.028,29.1257)">
                    <path d="M3761.41,-112.159C3761.41,-113.041 3760.97,-113.887 3760.19,-114.51C3759.41,-115.134 3758.35,-115.484 3757.25,-115.484C3752.44,-115.484 3744.56,-115.484 3739.75,-115.484C3738.65,-115.484 3737.59,-115.134 3736.81,-114.51C3736.03,-113.887 3735.59,-113.041 3735.59,-112.159C3735.59,-102.447 3735.59,-74.811 3735.59,-74.811L3761.41,-74.811L3761.41,-112.159Z" style="fill:rgb(0,105,253);stroke:rgb(34,91,170);stroke-width:0.46px;"/>
                </g>
                <g transform="matrix(1,0,0,1.24956,1.75894,28.9278)">
                    <path d="M3761.41,-112.152C3761.41,-113.036 3760.97,-113.883 3760.19,-114.508C3759.41,-115.133 3758.35,-115.484 3757.25,-115.484C3752.44,-115.484 3744.56,-115.484 3739.75,-115.484C3738.65,-115.484 3737.59,-115.133 3736.81,-114.508C3736.03,-113.883 3735.59,-113.036 3735.59,-112.152C3735.59,-102.434 3735.59,-74.811 3735.59,-74.811L3761.41,-74.811L3761.41,-112.152Z" style="fill:rgb(0,105,253);stroke:rgb(36,94,175);stroke-width:0.46px;"/>
                </g>
                <g transform="matrix(0.972493,0,0,1,95.3011,0)">
                    <path d="M3818.87,-57.264L3493.56,-57.264C3490.1,-57.264 3486.82,-55.772 3484.6,-53.191C3482.37,-50.609 3481.44,-47.203 3482.05,-43.89C3482.05,-43.888 3482.05,-43.888 3482.05,-43.888L3464.55,-43.888L3464.55,-64.553L3818.87,-64.553L3818.87,-57.264Z" style="fill:rgb(118,172,244);stroke:rgb(0,105,253);stroke-width:0.53px;"/>
                </g>
                <path d="M3604.47,-115.484L3604.47,-64.553" style="fill:none;stroke:rgb(34,91,170);stroke-width:0.52px;"/>
                <g transform="matrix(1,0,0,1,145.787,0.107606)">
                    <path d="M3604.47,-115.484L3604.47,-64.553" style="fill:none;stroke:rgb(38,100,187);stroke-width:0.52px;"/>
                </g>
                <g transform="matrix(1,0,0,1,-36.9406,147.851)">
                    <circle cx="3530.25" cy="-194.165" r="7.906" style="fill:rgb(46,46,46);stroke:black;stroke-width:0.52px;"/>
                    <g transform="matrix(0.5,0,0,0.5,1765.12,-97.0825)">
                        <circle cx="3530.25" cy="-194.165" r="7.906" style="fill:rgb(255,225,114);stroke:black;stroke-width:1.04px;"/>
                    </g>
                </g>
                <g transform="matrix(1,0,0,1,-18.9035,147.851)">
                    <circle cx="3530.25" cy="-194.165" r="7.906" style="fill:rgb(46,46,46);stroke:black;stroke-width:0.52px;"/>
                    <g transform="matrix(0.5,0,0,0.5,1765.12,-97.0825)">
                        <circle cx="3530.25" cy="-194.165" r="7.906" style="fill:rgb(255,225,114);stroke:black;stroke-width:1.04px;"/>
                    </g>
                </g>
                <g transform="matrix(1,0,0,1,-1.01671,147.851)">
                    <circle cx="3530.25" cy="-194.165" r="7.906" style="fill:rgb(16,16,16);stroke:black;stroke-width:0.52px;"/>
                    <g transform="matrix(0.5,0,0,0.5,1765.12,-97.0825)">
                        <circle cx="3530.25" cy="-194.165" r="7.906" style="fill:rgb(255,225,114);stroke:black;stroke-width:1.04px;"/>
                    </g>
                </g>
                <g transform="matrix(1,0,0,1,56.565,147.851)">
                    <circle cx="3530.25" cy="-194.165" r="7.906" style="fill:rgb(16,16,16);stroke:black;stroke-width:0.52px;"/>
                    <g transform="matrix(0.5,0,0,0.5,1765.12,-97.0825)">
                        <circle cx="3530.25" cy="-194.165" r="7.906" style="fill:rgb(255,225,114);stroke:black;stroke-width:1.04px;"/>
                    </g>
                </g>
                <g transform="matrix(1,0,0,1,74.6021,147.851)">
                    <circle cx="3530.25" cy="-194.165" r="7.906" style="fill:rgb(16,16,16);stroke:black;stroke-width:0.52px;"/>
                    <g transform="matrix(0.5,0,0,0.5,1765.12,-97.0825)">
                        <circle cx="3530.25" cy="-194.165" r="7.906" style="fill:rgb(255,225,114);stroke:black;stroke-width:1.04px;"/>
                    </g>
                </g>
                <g transform="matrix(1,0,0,1,92.4889,147.851)">
                    <circle cx="3530.25" cy="-194.165" r="7.906" style="fill:rgb(16,16,16);stroke:black;stroke-width:0.52px;"/>
                    <g transform="matrix(0.5,0,0,0.5,1765.12,-97.0825)">
                        <circle cx="3530.25" cy="-194.165" r="7.906" style="fill:rgb(255,225,114);stroke:black;stroke-width:1.04px;"/>
                    </g>
                </g>
                <g transform="matrix(1,0,0,1,149.274,147.851)">
                    <circle cx="3530.25" cy="-194.165" r="7.906" style="fill:rgb(13,13,13);stroke:black;stroke-width:0.52px;"/>
                    <g transform="matrix(0.5,0,0,0.5,1765.12,-97.0825)">
                        <circle cx="3530.25" cy="-194.165" r="7.906" style="fill:rgb(255,225,114);stroke:black;stroke-width:1.04px;"/>
                    </g>
                </g>
                <g transform="matrix(1,0,0,1,167.311,147.851)">
                    <circle cx="3530.25" cy="-194.165" r="7.906" style="fill:rgb(13,13,13);stroke:black;stroke-width:0.52px;"/>
                    <g transform="matrix(0.5,0,0,0.5,1765.12,-97.0825)">
                        <circle cx="3530.25" cy="-194.165" r="7.906" style="fill:rgb(255,225,114);stroke:black;stroke-width:1.04px;"/>
                    </g>
                </g>
                <g transform="matrix(1,0,0,1,185.198,147.851)">
                    <circle cx="3530.25" cy="-194.165" r="7.906" style="fill:rgb(13,13,13);stroke:black;stroke-width:0.52px;"/>
                    <g transform="matrix(0.5,0,0,0.5,1765.12,-97.0825)">
                        <circle cx="3530.25" cy="-194.165" r="7.906" style="fill:rgb(255,225,114);stroke:black;stroke-width:1.04px;"/>
                    </g>
                </g>
                <g transform="matrix(1,0,0,1,232.855,147.851)">
                    <circle cx="3530.25" cy="-194.165" r="7.906" style="fill:rgb(13,13,13);stroke:black;stroke-width:0.52px;"/>
                    <g transform="matrix(0.5,0,0,0.5,1765.12,-97.0825)">
                        <circle cx="3530.25" cy="-194.165" r="7.906" style="fill:rgb(255,225,114);stroke:black;stroke-width:1.04px;"/>
                    </g>
                </g>
                <g transform="matrix(1,0,0,1,250.892,147.851)">
                    <circle cx="3530.25" cy="-194.165" r="7.906" style="fill:rgb(13,13,13);stroke:black;stroke-width:0.52px;"/>
                    <g transform="matrix(0.5,0,0,0.5,1765.12,-97.0825)">
                        <circle cx="3530.25" cy="-194.165" r="7.906" style="fill:rgb(255,225,114);stroke:black;stroke-width:1.04px;"/>
                    </g>
                </g>
                <g transform="matrix(1,0,0,1,268.779,147.851)">
                    <circle cx="3530.25" cy="-194.165" r="7.906" style="fill:rgb(13,13,13);stroke:black;stroke-width:0.52px;"/>
                    <g transform="matrix(0.5,0,0,0.5,1765.12,-97.0825)">
                        <circle cx="3530.25" cy="-194.165" r="7.906" style="fill:rgb(255,225,114);stroke:black;stroke-width:1.04px;"/>
                    </g>
                </g>
                <g id="train-wagon-2" transform="matrix(-1,0,0,1,7626.5,0)">
                    <g transform="matrix(0.908012,0,0,1,373.19,2.51073)">
                        <path d="M3784.02,-128.038L3427.47,-128.038C3414.81,-128.038 3404.54,-118.716 3404.54,-107.216L3404.54,-67.063L3784.02,-67.063L3784.02,-128.038Z" style="fill:rgb(118,172,244);stroke:rgb(4,106,254);stroke-width:0.55px;"/>
                    </g>
                    <g transform="matrix(1.0157,0,0,0.919308,-59.7935,-7.16899)">
                        <path d="M3809.12,-95.04L3469.88,-95.04L3469.88,-82.648L3809.12,-82.648L3809.12,-95.04Z" style="fill:rgb(0,105,253);stroke:rgb(4,106,254);stroke-width:0.54px;"/>
                    </g>
                    <g transform="matrix(1.46552,0,0,0.327273,-1761.74,-77.4547)">
                        <path d="M3795.85,-103.477C3795.85,-106.852 3795.55,-110.089 3795.02,-112.475C3794.49,-114.861 3793.76,-116.202 3793.01,-116.202C3789.04,-116.202 3781.86,-116.202 3777.89,-116.202C3777.14,-116.202 3776.41,-114.861 3775.88,-112.475C3775.35,-110.089 3775.05,-106.852 3775.05,-103.477C3775.05,-98.994 3775.05,-93.955 3775.05,-89.472C3775.05,-86.097 3775.35,-82.861 3775.88,-80.474C3776.41,-78.088 3777.14,-76.747 3777.89,-76.747C3781.86,-76.747 3789.04,-76.747 3793.01,-76.747C3793.76,-76.747 3794.49,-78.088 3795.02,-80.474C3795.55,-82.861 3795.85,-86.097 3795.85,-89.472C3795.85,-93.955 3795.85,-98.994 3795.85,-103.477Z" style="fill:rgb(195,224,252);stroke:rgb(0,105,253);stroke-width:0.49px;"/>
                    </g>
                    <g transform="matrix(1.46552,0,0,0.327273,-1832.83,-77.3471)">
                        <path d="M3795.85,-103.477C3795.85,-106.852 3795.55,-110.089 3795.02,-112.475C3794.49,-114.861 3793.76,-116.202 3793.01,-116.202C3789.04,-116.202 3781.86,-116.202 3777.89,-116.202C3777.14,-116.202 3776.41,-114.861 3775.88,-112.475C3775.35,-110.089 3775.05,-106.852 3775.05,-103.477C3775.05,-98.994 3775.05,-93.955 3775.05,-89.472C3775.05,-86.097 3775.35,-82.861 3775.88,-80.474C3776.41,-78.088 3777.14,-76.747 3777.89,-76.747C3781.86,-76.747 3789.04,-76.747 3793.01,-76.747C3793.76,-76.747 3794.49,-78.088 3795.02,-80.474C3795.55,-82.861 3795.85,-86.097 3795.85,-89.472C3795.85,-93.955 3795.85,-98.994 3795.85,-103.477Z" style="fill:rgb(195,224,252);stroke:rgb(0,105,253);stroke-width:0.49px;"/>
                    </g>
                    <g transform="matrix(1.46552,0,0,0.327273,-1870.41,-77.4547)">
                        <path d="M3795.85,-103.477C3795.85,-106.852 3795.55,-110.089 3795.02,-112.475C3794.49,-114.861 3793.76,-116.202 3793.01,-116.202C3789.04,-116.202 3781.86,-116.202 3777.89,-116.202C3777.14,-116.202 3776.41,-114.861 3775.88,-112.475C3775.35,-110.089 3775.05,-106.852 3775.05,-103.477C3775.05,-98.994 3775.05,-93.955 3775.05,-89.472C3775.05,-86.097 3775.35,-82.861 3775.88,-80.474C3776.41,-78.088 3777.14,-76.747 3777.89,-76.747C3781.86,-76.747 3789.04,-76.747 3793.01,-76.747C3793.76,-76.747 3794.49,-78.088 3795.02,-80.474C3795.55,-82.861 3795.85,-86.097 3795.85,-89.472C3795.85,-93.955 3795.85,-98.994 3795.85,-103.477Z" style="fill:rgb(195,224,252);stroke:rgb(0,105,253);stroke-width:0.49px;"/>
                    </g>
                    <g transform="matrix(1.46552,0,0,0.327273,-1907.67,-77.4547)">
                        <path d="M3795.85,-103.477C3795.85,-106.852 3795.55,-110.089 3795.02,-112.475C3794.49,-114.861 3793.76,-116.202 3793.01,-116.202C3789.04,-116.202 3781.86,-116.202 3777.89,-116.202C3777.14,-116.202 3776.41,-114.861 3775.88,-112.475C3775.35,-110.089 3775.05,-106.852 3775.05,-103.477C3775.05,-98.994 3775.05,-93.955 3775.05,-89.472C3775.05,-86.097 3775.35,-82.861 3775.88,-80.474C3776.41,-78.088 3777.14,-76.747 3777.89,-76.747C3781.86,-76.747 3789.04,-76.747 3793.01,-76.747C3793.76,-76.747 3794.49,-78.088 3795.02,-80.474C3795.55,-82.861 3795.85,-86.097 3795.85,-89.472C3795.85,-93.955 3795.85,-98.994 3795.85,-103.477Z" style="fill:rgb(195,224,252);stroke:rgb(0,105,253);stroke-width:0.49px;"/>
                    </g>
                    <g transform="matrix(1.46552,0,0,0.327273,-1979.22,-77.3471)">
                        <path d="M3795.85,-103.477C3795.85,-106.852 3795.55,-110.089 3795.02,-112.475C3794.49,-114.861 3793.76,-116.202 3793.01,-116.202C3789.04,-116.202 3781.86,-116.202 3777.89,-116.202C3777.14,-116.202 3776.41,-114.861 3775.88,-112.475C3775.35,-110.089 3775.05,-106.852 3775.05,-103.477C3775.05,-98.994 3775.05,-93.955 3775.05,-89.472C3775.05,-86.097 3775.35,-82.861 3775.88,-80.474C3776.41,-78.088 3777.14,-76.747 3777.89,-76.747C3781.86,-76.747 3789.04,-76.747 3793.01,-76.747C3793.76,-76.747 3794.49,-78.088 3795.02,-80.474C3795.55,-82.861 3795.85,-86.097 3795.85,-89.472C3795.85,-93.955 3795.85,-98.994 3795.85,-103.477Z" style="fill:rgb(195,224,252);stroke:rgb(4,106,254);stroke-width:0.49px;"/>
                    </g>
                    <g transform="matrix(1.46552,0,0,0.327273,-2016.8,-77.4547)">
                        <path d="M3795.85,-103.477C3795.85,-106.852 3795.55,-110.089 3795.02,-112.475C3794.49,-114.861 3793.76,-116.202 3793.01,-116.202C3789.04,-116.202 3781.86,-116.202 3777.89,-116.202C3777.14,-116.202 3776.41,-114.861 3775.88,-112.475C3775.35,-110.089 3775.05,-106.852 3775.05,-103.477C3775.05,-98.994 3775.05,-93.955 3775.05,-89.472C3775.05,-86.097 3775.35,-82.861 3775.88,-80.474C3776.41,-78.088 3777.14,-76.747 3777.89,-76.747C3781.86,-76.747 3789.04,-76.747 3793.01,-76.747C3793.76,-76.747 3794.49,-78.088 3795.02,-80.474C3795.55,-82.861 3795.85,-86.097 3795.85,-89.472C3795.85,-93.955 3795.85,-98.994 3795.85,-103.477Z" style="fill:rgb(195,224,252);stroke:rgb(4,106,254);stroke-width:0.49px;"/>
                    </g>
                    <g transform="matrix(1.46552,0,0,0.327273,-2054.44,-77.4547)">
                        <path d="M3795.85,-103.477C3795.85,-106.852 3795.55,-110.089 3795.02,-112.475C3794.49,-114.861 3793.76,-116.202 3793.01,-116.202C3789.04,-116.202 3781.86,-116.202 3777.89,-116.202C3777.14,-116.202 3776.41,-114.861 3775.88,-112.475C3775.35,-110.089 3775.05,-106.852 3775.05,-103.477C3775.05,-98.994 3775.05,-93.955 3775.05,-89.472C3775.05,-86.097 3775.35,-82.861 3775.88,-80.474C3776.41,-78.088 3777.14,-76.747 3777.89,-76.747C3781.86,-76.747 3789.04,-76.747 3793.01,-76.747C3793.76,-76.747 3794.49,-78.088 3795.02,-80.474C3795.55,-82.861 3795.85,-86.097 3795.85,-89.472C3795.85,-93.955 3795.85,-98.994 3795.85,-103.477Z" style="fill:rgb(195,224,252);stroke:rgb(4,106,254);stroke-width:0.49px;"/>
                    </g>
                    <g transform="matrix(1,0,0,0.990697,0,-0.600505)">
                        <rect x="3464.55" y="-64.553" width="344.571" height="14.714" style="fill:rgb(0,105,253);stroke:rgb(0,105,253);stroke-width:0.52px;"/>
                    </g>
                    <g transform="matrix(0.908144,0,0,1.05829,349.771,4.36024)">
                        <path d="M3809.26,-74.811L3429.83,-74.811L3429.83,-65.117L3809.26,-65.215L3809.26,-74.811Z" style="fill:rgb(198,223,254);stroke:rgb(4,106,254);stroke-width:0.53px;"/>
                    </g>
                    <g transform="matrix(1,0,0,1.2522,-144.028,29.1257)">
                        <path d="M3761.41,-112.159C3761.41,-113.041 3760.97,-113.887 3760.19,-114.51C3759.41,-115.134 3758.35,-115.484 3757.25,-115.484C3752.44,-115.484 3744.56,-115.484 3739.75,-115.484C3738.65,-115.484 3737.59,-115.134 3736.81,-114.51C3736.03,-113.887 3735.59,-113.041 3735.59,-112.159C3735.59,-102.447 3735.59,-74.811 3735.59,-74.811L3761.41,-74.811L3761.41,-112.159Z" style="fill:rgb(0,105,253);stroke:rgb(1,76,185);stroke-width:0.46px;"/>
                    </g>
                    <g transform="matrix(1,0,0,1.24956,1.75894,28.9278)">
                        <path d="M3761.41,-112.152C3761.41,-113.036 3760.97,-113.883 3760.19,-114.508C3759.41,-115.133 3758.35,-115.484 3757.25,-115.484C3752.44,-115.484 3744.56,-115.484 3739.75,-115.484C3738.65,-115.484 3737.59,-115.133 3736.81,-114.508C3736.03,-113.883 3735.59,-113.036 3735.59,-112.152C3735.59,-102.434 3735.59,-74.811 3735.59,-74.811L3761.41,-74.811L3761.41,-112.152Z" style="fill:rgb(0,105,253);stroke:rgb(38,99,185);stroke-width:0.46px;"/>
                    </g>
                    <g transform="matrix(0.972493,0,0,1,95.3011,0)">
                        <path d="M3818.87,-57.264L3493.56,-57.264C3490.1,-57.264 3486.82,-55.772 3484.6,-53.191C3482.37,-50.609 3481.44,-47.203 3482.05,-43.89C3482.05,-43.888 3482.05,-43.888 3482.05,-43.888L3464.55,-43.888L3464.55,-64.553L3818.87,-64.553L3818.87,-57.264Z" style="fill:rgb(118,172,244);stroke:rgb(4,106,254);stroke-width:0.53px;"/>
                    </g>
                    <path d="M3604.47,-115.484L3604.47,-64.553" style="fill:none;stroke:rgb(1,82,201);stroke-width:0.52px;"/>
                    <g transform="matrix(1,0,0,1,145.787,0.107606)">
                        <path d="M3604.47,-115.484L3604.47,-64.553" style="fill:none;stroke:black;stroke-width:0.52px;"/>
                    </g>
                    <g transform="matrix(1,0,0,1,-36.9406,147.851)">
                        <circle cx="3530.25" cy="-194.165" r="7.906" style="fill:rgb(13,13,13);stroke:black;stroke-width:0.52px;"/>
                        <g transform="matrix(0.5,0,0,0.5,1765.12,-97.0825)">
                            <circle cx="3530.25" cy="-194.165" r="7.906" style="fill:rgb(255,225,114);stroke:black;stroke-width:1.04px;"/>
                        </g>
                    </g>
                    <g transform="matrix(1,0,0,1,-18.9035,147.851)">
                        <circle cx="3530.25" cy="-194.165" r="7.906" style="fill:rgb(13,13,13);stroke:black;stroke-width:0.52px;"/>
                        <g transform="matrix(0.5,0,0,0.5,1765.12,-97.0825)">
                            <circle cx="3530.25" cy="-194.165" r="7.906" style="fill:rgb(255,225,114);stroke:black;stroke-width:1.04px;"/>
                        </g>
                    </g>
                    <g transform="matrix(1,0,0,1,-1.01671,147.851)">
                        <circle cx="3530.25" cy="-194.165" r="7.906" style="fill:rgb(13,13,13);stroke:black;stroke-width:0.52px;"/>
                        <g transform="matrix(0.5,0,0,0.5,1765.12,-97.0825)">
                            <circle cx="3530.25" cy="-194.165" r="7.906" style="fill:rgb(255,225,114);stroke:black;stroke-width:1.04px;"/>
                        </g>
                    </g>
                    <g transform="matrix(1,0,0,1,56.565,147.851)">
                        <circle cx="3530.25" cy="-194.165" r="7.906" style="fill:rgb(13,13,13);stroke:black;stroke-width:0.52px;"/>
                        <g transform="matrix(0.5,0,0,0.5,1765.12,-97.0825)">
                            <circle cx="3530.25" cy="-194.165" r="7.906" style="fill:rgb(255,225,114);stroke:black;stroke-width:1.04px;"/>
                        </g>
                    </g>
                    <g transform="matrix(1,0,0,1,74.6021,147.851)">
                        <circle cx="3530.25" cy="-194.165" r="7.906" style="fill:rgb(13,13,13);stroke:black;stroke-width:0.52px;"/>
                        <g transform="matrix(0.5,0,0,0.5,1765.12,-97.0825)">
                            <circle cx="3530.25" cy="-194.165" r="7.906" style="fill:rgb(255,225,114);stroke:black;stroke-width:1.04px;"/>
                        </g>
                    </g>
                    <g transform="matrix(1,0,0,1,92.4889,147.851)">
                        <circle cx="3530.25" cy="-194.165" r="7.906" style="fill:rgb(13,13,13);stroke:black;stroke-width:0.52px;"/>
                        <g transform="matrix(0.5,0,0,0.5,1765.12,-97.0825)">
                            <circle cx="3530.25" cy="-194.165" r="7.906" style="fill:rgb(255,225,114);stroke:black;stroke-width:1.04px;"/>
                        </g>
                    </g>
                    <g transform="matrix(1,0,0,1,149.274,147.851)">
                        <circle cx="3530.25" cy="-194.165" r="7.906" style="fill:rgb(13,13,13);stroke:black;stroke-width:0.52px;"/>
                        <g transform="matrix(0.5,0,0,0.5,1765.12,-97.0825)">
                            <circle cx="3530.25" cy="-194.165" r="7.906" style="fill:rgb(255,225,114);stroke:black;stroke-width:1.04px;"/>
                        </g>
                    </g>
                    <g transform="matrix(1,0,0,1,167.311,147.851)">
                        <circle cx="3530.25" cy="-194.165" r="7.906" style="fill:rgb(13,13,13);stroke:black;stroke-width:0.52px;"/>
                        <g transform="matrix(0.5,0,0,0.5,1765.12,-97.0825)">
                            <circle cx="3530.25" cy="-194.165" r="7.906" style="fill:rgb(255,225,114);stroke:black;stroke-width:1.04px;"/>
                        </g>
                    </g>
                    <g transform="matrix(1,0,0,1,185.198,147.851)">
                        <circle cx="3530.25" cy="-194.165" r="7.906" style="fill:rgb(13,13,13);stroke:black;stroke-width:0.52px;"/>
                        <g transform="matrix(0.5,0,0,0.5,1765.12,-97.0825)">
                            <circle cx="3530.25" cy="-194.165" r="7.906" style="fill:rgb(255,225,114);stroke:black;stroke-width:1.04px;"/>
                        </g>
                    </g>
                    <g transform="matrix(1,0,0,1,232.855,147.851)">
                        <circle cx="3530.25" cy="-194.165" r="7.906" style="fill:rgb(13,13,13);stroke:black;stroke-width:0.52px;"/>
                        <g transform="matrix(0.5,0,0,0.5,1765.12,-97.0825)">
                            <circle cx="3530.25" cy="-194.165" r="7.906" style="fill:rgb(255,225,114);stroke:black;stroke-width:1.04px;"/>
                        </g>
                    </g>
                    <g transform="matrix(1,0,0,1,250.892,147.851)">
                        <circle cx="3530.25" cy="-194.165" r="7.906" style="fill:rgb(13,13,13);stroke:black;stroke-width:0.52px;"/>
                        <g transform="matrix(0.5,0,0,0.5,1765.12,-97.0825)">
                            <circle cx="3530.25" cy="-194.165" r="7.906" style="fill:rgb(255,225,114);stroke:black;stroke-width:1.04px;"/>
                        </g>
                    </g>
                    <g transform="matrix(1,0,0,1,268.779,147.851)">
                        <circle cx="3530.25" cy="-194.165" r="7.906" style="fill:rgb(13,13,13);stroke:black;stroke-width:0.52px;"/>
                        <g transform="matrix(0.5,0,0,0.5,1765.12,-97.0825)">
                            <circle cx="3530.25" cy="-194.165" r="7.906" style="fill:rgb(255,225,114);stroke:black;stroke-width:1.04px;"/>
                        </g>
                    </g>
                </g>
                <g id="Train-link" transform="matrix(1,0,0,0.746664,283.839,-576.664)">
                    <rect x="3524.91" y="617.654" width="8.629" height="68.212"/>
                </g>
                <g id="train-lights" transform="matrix(1.46769,0,0,1.46769,2852.1,-2966.36)">
                    <path d="M423.036,1961.56L427.209,1961.56C427.248,1961.56 427.283,1961.59 427.294,1961.63C427.305,1961.66 427.289,1961.7 427.256,1961.73C426.127,1962.44 421.664,1965.26 421.664,1965.26L423.036,1961.56Z" style="fill:rgb(255,225,114);stroke:rgb(0,105,253);stroke-width:0.35px;"/>
                </g>
            </g>
        </g>
    </g>
</svg>
