<?xml version="1.0" encoding="UTF-8" standalone="no"?>
<!DOCTYPE svg PUBLIC "-//W3C//DTD SVG 1.1//EN" "http://www.w3.org/Graphics/SVG/1.1/DTD/svg11.dtd">
<svg width="100%" height="100%" viewBox="0 0 743 291" version="1.1" xmlns="http://www.w3.org/2000/svg" xmlns:xlink="http://www.w3.org/1999/xlink" xml:space="preserve" xmlns:serif="http://www.serif.com/" style="fill-rule:evenodd;clip-rule:evenodd;stroke-linejoin:round;stroke-miterlimit:1.5;">
    <g transform="matrix(1,0,0,1,19.8976,-3446.94)">
        <g transform="matrix(0.731306,0,0,0.927136,321.02,-384.796)">
            <g id="strain-station" transform="matrix(2.10654,0,0,1.52115,274.678,1684.45)">
                <g transform="matrix(0.869876,0,0,0.819459,-2723.27,1357.74)">
                    <path d="M3231.71,427.743L3088.1,427.743L3088.1,558.271L3117.12,558.271L3117.12,464.407C3117.12,454.683 3120.99,445.357 3127.86,438.482C3134.74,431.606 3144.06,427.743 3153.79,427.743C3153.79,427.743 3153.79,427.743 3153.79,427.743C3163.51,427.743 3172.84,431.606 3179.72,438.482C3186.59,445.357 3190.45,454.683 3190.45,464.407L3190.45,558.271L3195.05,558.271L3195.05,464.407C3195.05,454.683 3198.91,445.357 3205.79,438.482C3212.66,431.606 3221.99,427.743 3231.71,427.743ZM3231.72,427.743C3241.44,427.743 3250.76,431.606 3257.64,438.482C3264.52,445.357 3268.38,454.683 3268.38,464.407L3268.38,558.271L3271.95,558.271L3271.95,427.743L3231.72,427.743Z" style="fill:rgb(198,223,254);stroke:rgb(4,106,254);stroke-width:0.8px;"/>
                </g>
                <g transform="matrix(0.750192,0,0,0.76067,-2396.88,1392.17)">
                    <rect x="2838.15" y="360.863" width="153.514" height="195.298" style="fill:rgb(234,244,254);stroke:rgb(4,106,254);stroke-width:0.9px;"/>
                </g>
                <g transform="matrix(0.883032,0,0,0.76067,-2658.73,1392.17)">
                    <rect x="2838.15" y="360.863" width="153.514" height="195.298" style="fill:rgb(234,244,254);stroke:rgb(4,106,254);stroke-width:0.82px;"/>
                </g>
                <g transform="matrix(0.726677,0,0,0.819459,-2300.91,1357.74)">
                    <g transform="matrix(1.03236,0,0,1.1923,-70.3581,-107.354)">
                        <rect x="2886.21" y="420.121" width="10.593" height="138.151" style="fill:rgb(198,223,254);stroke:rgb(4,106,254);stroke-width:0.79px;"/>
                    </g>
                    <g transform="matrix(1.03236,0,0,0.826023,-75.8261,46.5255)">
                        <rect x="2886.21" y="408.53" width="21.186" height="11.59" style="fill:rgb(118,172,244);stroke:rgb(4,106,254);stroke-width:0.94px;"/>
                    </g>
                </g>
                <g transform="matrix(0.339567,0,0,0.819459,-1278.88,1357.74)">
                    <g transform="matrix(1.03236,0,0,1.1923,-70.3581,-107.354)">
                        <rect x="2886.21" y="420.121" width="10.593" height="138.151" style="fill:rgb(198,223,254);stroke:rgb(4,106,254);stroke-width:0.96px;"/>
                    </g>
                    <g transform="matrix(1.03236,0,0,0.826023,-75.8261,46.5255)">
                        <rect x="2886.21" y="408.53" width="21.186" height="11.59" style="fill:rgb(118,172,244);stroke:rgb(4,106,254);stroke-width:1.29px;"/>
                    </g>
                </g>
                <g transform="matrix(0.76197,0,0,0.819459,-2429.28,1332.26)">
                    <rect x="2743.55" y="451.838" width="93.48" height="137.493" style="fill:rgb(198,223,254);stroke:rgb(4,106,254);stroke-width:0.86px;"/>
                </g>
                <g transform="matrix(0.66245,0,0,0.928431,-2147.53,1325.3)">
                    <rect x="2711.39" y="385.259" width="147.2" height="42.076" style="fill:rgb(118,172,244);stroke:rgb(4,106,254);stroke-width:0.85px;"/>
                </g>
                <g transform="matrix(0.518554,0,0,0.619955,-1746.78,1450.64)">
                    <rect x="2711.39" y="385.259" width="147.2" height="42.076" style="fill:rgb(254,253,193);stroke:rgb(4,106,254);stroke-width:1.19px;"/>
                </g>
                <g transform="matrix(1.13593,0,0,1.24081,-3446.5,1188.03)">
                    <text x="2742.51px" y="418.937px" style="font-family:'Arial-BoldMT', 'Arial', sans-serif;font-weight:700;font-size:12px;fill:rgb(4,106,254);">ST<tspan x="2756.95px 2764.73px 2772.06px " y="418.937px 418.937px 418.937px ">ATI</tspan>ON</text>
                </g>
                <g transform="matrix(0.750192,0,0,0.819459,-2391.5,1358.9)">
                    <rect x="2747.02" y="451.838" width="74.891" height="72.467" style="fill:rgb(234,244,254);stroke:rgb(4,106,254);stroke-width:0.87px;"/>
                </g>
                <g transform="matrix(0.750192,0,0,0.819459,-2393.4,1356.16)">
                    <rect x="2744.91" y="523.528" width="84.181" height="8.238" style="fill:rgb(118,172,244);stroke:rgb(4,106,254);stroke-width:0.87px;"/>
                </g>
                <g transform="matrix(0.662098,0,0,0.819459,-2143.48,1359.08)">
                    <rect x="2806.37" y="324.628" width="200.634" height="57.724" style="fill:rgb(118,172,244);stroke:rgb(4,106,254);stroke-width:0.92px;"/>
                </g>
                <g transform="matrix(0.750192,0,0,0.819459,-2333.66,1357.74)">
                    <path d="M2730.32,326.257L2720.39,336.192L2720.39,383.981L2730.32,383.981L2730.32,326.257Z" style="fill:rgb(118,172,244);stroke:rgb(4,106,254);stroke-width:0.87px;"/>
                </g>
                <g transform="matrix(0.812975,0,0,1.082,-2434.06,1258.69)">
                    <rect x="2806.37" y="324.628" width="200.634" height="57.724" style="fill:rgb(198,223,254);stroke:rgb(4,106,254);stroke-width:0.72px;"/>
                </g>
                <g transform="matrix(0.750192,0,0,0.819459,-2333.66,1357.74)">
                    <path d="M2907.4,307.763L2887.37,326.257L2887.37,558.271L2907.4,558.271L2907.4,307.763Z" style="fill:rgb(118,172,244);stroke:rgb(4,106,254);stroke-width:0.87px;"/>
                </g>
                <g transform="matrix(0.750192,0,0,0.819459,-2393.6,1365.28)">
                    <path d="M3362.53,413.597C3357.68,394.87 3340.78,381.792 3321.43,381.792L3168,381.792L3168,418.548L3363.82,418.548C3363.82,418.548 3363.31,416.598 3362.53,413.597Z" style="fill:rgb(118,172,244);stroke:rgb(4,106,254);stroke-width:0.87px;"/>
                </g>
                <g transform="matrix(0.439704,0,0,0.819459,-1345.31,1356.3)">
                    <rect x="3171.87" y="460.63" width="21.365" height="6.997" style="fill:rgb(118,172,244);stroke:rgb(4,106,254);stroke-width:1.06px;"/>
                </g>
                <g transform="matrix(0.439704,0,0,0.819459,-1413.77,1356.3)">
                    <rect x="3171.87" y="460.63" width="21.365" height="6.997" style="fill:rgb(118,172,244);stroke:rgb(4,106,254);stroke-width:1.06px;"/>
                </g>
                <g transform="matrix(0.439704,0,0,0.819459,-1278.16,1356.3)">
                    <rect x="3171.87" y="460.63" width="21.365" height="6.997" style="fill:rgb(118,172,244);stroke:rgb(4,106,254);stroke-width:1.06px;"/>
                </g>
                <g transform="matrix(0.726677,0,0,0.819459,-2278.56,1357.74)">
                    <g transform="matrix(1.03236,0,0,1,-75.8261,1.13687e-13)">
                        <path d="M3153.03,427.743L3153.03,430.268" style="fill:none;stroke:rgb(4,106,254);stroke-width:0.43px;"/>
                    </g>
                    <g transform="matrix(1.03236,0,0,1,-15.4088,1.13687e-13)">
                        <path d="M3153.03,427.743L3153.03,430.268" style="fill:none;stroke:rgb(4,106,254);stroke-width:0.43px;"/>
                    </g>
                    <g transform="matrix(1.44818,0,0,1.40279,-1384.3,-172.29)">
                        <path d="M3153.03,427.743L3153.03,430.268" style="fill:none;stroke:rgb(4,106,254);stroke-width:0.31px;"/>
                    </g>
                    <g transform="matrix(1.44818,0,0,1.40279,-1329.14,-172.29)">
                        <path d="M3153.03,427.743L3153.03,430.268" style="fill:none;stroke:rgb(4,106,254);stroke-width:0.31px;"/>
                    </g>
                    <g transform="matrix(1.44818,0,0,1.7832,-1381.68,-335.009)">
                        <path d="M3153.03,427.743L3153.03,430.268" style="fill:none;stroke:rgb(4,106,254);stroke-width:0.27px;"/>
                    </g>
                    <g transform="matrix(1.83081,0,0,2.25435,-2585.5,-536.539)">
                        <path d="M3153.03,427.743L3153.03,430.268" style="fill:none;stroke:rgb(4,106,254);stroke-width:0.21px;"/>
                    </g>
                    <g transform="matrix(1.72078,0,0,2.11886,-2191.27,-478.584)">
                        <path d="M3153.03,427.743L3153.03,430.268" style="fill:none;stroke:rgb(4,106,254);stroke-width:0.23px;"/>
                    </g>
                    <g transform="matrix(2.42486,0,0,2.98582,-4455.92,-849.421)">
                        <path d="M3153.03,427.743L3153.03,430.268" style="fill:none;stroke:rgb(4,106,254);stroke-width:0.16px;"/>
                    </g>
                    <g transform="matrix(2.19328,0,0,2.70067,-3683.7,-727.448)">
                        <path d="M3153.03,427.743L3153.03,430.268" style="fill:none;stroke:rgb(4,106,254);stroke-width:0.18px;"/>
                    </g>
                    <g transform="matrix(2.95514,0,0,3.63878,-6125.29,-1128.72)">
                        <path d="M3153.03,427.743L3153.03,430.268" style="fill:none;stroke:rgb(4,106,254);stroke-width:0.13px;"/>
                    </g>
                    <g transform="matrix(2.75664,0,0,3.39436,-5462.64,-1024.17)">
                        <path d="M3153.03,427.743L3153.03,430.268" style="fill:none;stroke:rgb(4,106,254);stroke-width:0.14px;"/>
                    </g>
                    <g transform="matrix(3.66163,0,0,4.5087,-8350.23,-1500.82)">
                        <path d="M3153.03,427.743L3153.03,430.268" style="fill:none;stroke:rgb(4,106,254);stroke-width:0.11px;"/>
                    </g>
                    <g transform="matrix(3.20472,0,0,3.94609,-6878.05,-1260.17)">
                        <path d="M3153.03,427.743L3153.03,430.268" style="fill:none;stroke:rgb(4,106,254);stroke-width:0.12px;"/>
                    </g>
                    <g transform="matrix(4.51662,0,0,5.56149,-11043.4,-1951.14)">
                        <path d="M3153.03,427.743L3153.03,430.268" style="fill:none;stroke:rgb(4,106,254);stroke-width:0.09px;"/>
                    </g>
                    <g transform="matrix(3.93767,0,0,4.8486,-9191.7,-1646.21)">
                        <path d="M3153.03,427.743L3153.03,430.268" style="fill:none;stroke:rgb(4,106,254);stroke-width:0.1px;"/>
                    </g>
                    <g transform="matrix(5.44322,0,0,6.70244,-13962.4,-2439.18)">
                        <path d="M3153.03,427.743L3153.03,430.268" style="fill:none;stroke:rgb(4,106,254);stroke-width:0.07px;"/>
                    </g>
                    <g transform="matrix(4.81464,0,0,5.92845,-11959.5,-2108.11)">
                        <path d="M3153.03,427.743L3153.03,430.268" style="fill:none;stroke:rgb(4,106,254);stroke-width:0.08px;"/>
                    </g>
                    <g transform="matrix(6.69064,0,0,8.23843,-17892.9,-3096.19)">
                        <path d="M3153.03,427.743L3153.03,430.268" style="fill:none;stroke:rgb(4,106,254);stroke-width:0.06px;"/>
                    </g>
                    <g transform="matrix(5.97935,0,0,7.3626,-15634.4,-2721.56)">
                        <path d="M3153.03,427.743L3153.03,430.268" style="fill:none;stroke:rgb(4,106,254);stroke-width:0.07px;"/>
                    </g>
                    <g transform="matrix(8.48116,0,0,10.4432,-23535.9,-4039.25)">
                        <path d="M3153.03,427.743L3153.03,430.268" style="fill:none;stroke:rgb(4,106,254);stroke-width:0.05px;"/>
                    </g>
                    <g transform="matrix(7.32326,0,0,9.0174,-19874.4,-3429.39)">
                        <path d="M3153.03,427.743L3153.03,430.268" style="fill:none;stroke:rgb(4,106,254);stroke-width:0.05px;"/>
                    </g>
                    <g transform="matrix(10.0106,0,0,12.3265,-28355.7,-4844.82)">
                        <path d="M3153.03,427.743L3153.03,430.268" style="fill:none;stroke:rgb(4,106,254);stroke-width:0.04px;"/>
                    </g>
                    <g transform="matrix(9.3986,0,0,11.5728,-26420.7,-4522.46)">
                        <path d="M3153.03,427.743L3153.03,430.268" style="fill:none;stroke:rgb(4,106,254);stroke-width:0.04px;"/>
                    </g>
                    <g transform="matrix(10.0106,0,0,12.3265,-28353.1,-4844.82)">
                        <path d="M3153.03,427.743L3153.03,430.268" style="fill:none;stroke:rgb(4,106,254);stroke-width:0.04px;"/>
                    </g>
                </g>
                <g transform="matrix(0.726677,0,0,0.819459,-2211.15,1357.74)">
                    <g transform="matrix(1.03236,0,0,1,-76.6889,2.27374e-13)">
                        <path d="M3153.03,427.743L3153.03,430.268" style="fill:none;stroke:rgb(4,106,254);stroke-width:0.43px;"/>
                    </g>
                    <g transform="matrix(1.28454,0,0,1.24428,-869.211,-104.487)">
                        <path d="M3153.03,427.743L3153.03,430.268" style="fill:none;stroke:rgb(4,106,254);stroke-width:0.35px;"/>
                    </g>
                    <g transform="matrix(1.333,0,0,1.64137,-1019.4,-274.343)">
                        <path d="M3153.03,427.743L3153.03,430.268" style="fill:none;stroke:rgb(4,106,254);stroke-width:0.29px;"/>
                    </g>
                    <g transform="matrix(1.74273,0,0,2.14589,-2308.69,-490.148)">
                        <path d="M3153.03,427.743L3153.03,430.268" style="fill:none;stroke:rgb(4,106,254);stroke-width:0.22px;"/>
                    </g>
                    <g transform="matrix(2.11357,0,0,2.60252,-3475.35,-685.467)">
                        <path d="M3153.03,427.743L3153.03,430.268" style="fill:none;stroke:rgb(4,106,254);stroke-width:0.18px;"/>
                    </g>
                    <g transform="matrix(2.718,0,0,3.34678,-5378.52,-1003.82)">
                        <path d="M3153.03,427.743L3153.03,430.268" style="fill:none;stroke:rgb(4,106,254);stroke-width:0.14px;"/>
                    </g>
                    <g transform="matrix(3.26865,0,0,4.02482,-7112.13,-1293.84)">
                        <path d="M3153.03,427.743L3153.03,430.268" style="fill:none;stroke:rgb(4,106,254);stroke-width:0.12px;"/>
                    </g>
                    <g transform="matrix(4.03066,0,0,4.9631,-9512.14,-1695.19)">
                        <path d="M3153.03,427.743L3153.03,430.268" style="fill:none;stroke:rgb(4,106,254);stroke-width:0.1px;"/>
                    </g>
                    <g transform="matrix(4.8499,0,0,5.97187,-12092.6,-2126.68)">
                        <path d="M3153.03,427.743L3153.03,430.268" style="fill:none;stroke:rgb(4,106,254);stroke-width:0.08px;"/>
                    </g>
                    <g transform="matrix(6.02921,0,0,7.424,-15808.4,-2747.82)">
                        <path d="M3153.03,427.743L3153.03,430.268" style="fill:none;stroke:rgb(4,106,254);stroke-width:0.06px;"/>
                    </g>
                    <g transform="matrix(7.43891,0,0,9.15981,-20250.6,-3490.3)">
                        <path d="M3153.03,427.743L3153.03,430.268" style="fill:none;stroke:rgb(4,106,254);stroke-width:0.05px;"/>
                    </g>
                    <g transform="matrix(10.0106,0,0,12.3265,-28356.8,-4844.82)">
                        <path d="M3153.03,427.743L3153.03,430.268" style="fill:none;stroke:rgb(4,106,254);stroke-width:0.04px;"/>
                    </g>
                    <g transform="matrix(10.0106,0,0,12.3265,-28354.1,-4844.82)">
                        <path d="M3153.03,427.743L3153.03,430.268" style="fill:none;stroke:rgb(4,106,254);stroke-width:0.04px;"/>
                    </g>
                </g>
                <g transform="matrix(-0.726677,0,0,0.819459,2319.28,1357.35)">
                    <g transform="matrix(1.03236,0,0,1,-76.6889,2.27374e-13)">
                        <path d="M3153.03,427.743L3153.03,430.268" style="fill:none;stroke:rgb(4,106,254);stroke-width:0.43px;"/>
                    </g>
                    <g transform="matrix(1.28454,0,0,1.24428,-869.198,-104.487)">
                        <path d="M3153.03,427.743L3153.03,430.268" style="fill:none;stroke:rgb(4,106,254);stroke-width:0.35px;"/>
                    </g>
                    <g transform="matrix(1.333,0,0,1.64137,-1019.37,-274.343)">
                        <path d="M3153.03,427.743L3153.03,430.268" style="fill:none;stroke:rgb(4,106,254);stroke-width:0.29px;"/>
                    </g>
                    <g transform="matrix(1.74273,0,0,2.14589,-2308.65,-490.148)">
                        <path d="M3153.03,427.743L3153.03,430.268" style="fill:none;stroke:rgb(4,106,254);stroke-width:0.22px;"/>
                    </g>
                    <g transform="matrix(2.11357,0,0,2.60252,-3475.29,-685.467)">
                        <path d="M3153.03,427.743L3153.03,430.268" style="fill:none;stroke:rgb(4,106,254);stroke-width:0.18px;"/>
                    </g>
                    <g transform="matrix(2.718,0,0,3.34678,-5378.46,-1003.82)">
                        <path d="M3153.03,427.743L3153.03,430.268" style="fill:none;stroke:rgb(4,106,254);stroke-width:0.14px;"/>
                    </g>
                    <g transform="matrix(3.26865,0,0,4.02482,-7112.05,-1293.84)">
                        <path d="M3153.03,427.743L3153.03,430.268" style="fill:none;stroke:rgb(4,106,254);stroke-width:0.12px;"/>
                    </g>
                    <g transform="matrix(4.03066,0,0,4.9631,-9512.05,-1695.19)">
                        <path d="M3153.03,427.743L3153.03,430.268" style="fill:none;stroke:rgb(4,106,254);stroke-width:0.1px;"/>
                    </g>
                    <g transform="matrix(4.8499,0,0,5.97187,-12092.5,-2126.68)">
                        <path d="M3153.03,427.743L3153.03,430.268" style="fill:none;stroke:rgb(4,106,254);stroke-width:0.08px;"/>
                    </g>
                    <g transform="matrix(6.02921,0,0,7.424,-15808.3,-2747.82)">
                        <path d="M3153.03,427.743L3153.03,430.268" style="fill:none;stroke:rgb(4,106,254);stroke-width:0.06px;"/>
                    </g>
                    <g transform="matrix(7.43891,0,0,9.15981,-20250.5,-3490.3)">
                        <path d="M3153.03,427.743L3153.03,430.268" style="fill:none;stroke:rgb(4,106,254);stroke-width:0.05px;"/>
                    </g>
                    <g transform="matrix(10.0106,0,0,12.3265,-28356.6,-4844.82)">
                        <path d="M3153.03,427.743L3153.03,430.268" style="fill:none;stroke:rgb(4,106,254);stroke-width:0.04px;"/>
                    </g>
                    <g transform="matrix(10.0106,0,0,12.3265,-28354,-4844.82)">
                        <path d="M3153.03,427.743L3153.03,430.268" style="fill:none;stroke:rgb(4,106,254);stroke-width:0.04px;"/>
                    </g>
                    <g transform="matrix(10.0106,0,0,12.3265,-28351.4,-4844.82)">
                        <path d="M3153.03,427.743L3153.03,430.268" style="fill:none;stroke:rgb(4,106,254);stroke-width:0.04px;"/>
                    </g>
                </g>
                <g transform="matrix(0.750192,0,0,0.977038,-2240.18,1269.77)">
                    <rect x="2886.21" y="420.121" width="10.593" height="138.151" style="fill:rgb(198,223,254);stroke:rgb(4,106,254);stroke-width:0.79px;"/>
                </g>
                <g transform="matrix(0.750192,0,0,0.676891,-2244.16,1395.87)">
                    <rect x="2886.21" y="408.53" width="21.186" height="11.59" style="fill:rgb(118,172,244);stroke:rgb(4,106,254);stroke-width:0.94px;"/>
                </g>
                <g transform="matrix(0.726677,0,0,0.819459,-2266.9,1357.74)">
                    <g transform="matrix(1.03236,0,0,1,-73.8657,23.7556)">
                        <rect x="2933.79" y="413.568" width="46.524" height="83.869" style="fill:rgb(198,223,254);stroke:rgb(4,106,254);stroke-width:0.87px;"/>
                    </g>
                    <g transform="matrix(1.03236,0,0,1,-70.2717,-177.629)">
                        <path d="M2930.31,614.953C2930.31,602.114 2940.73,591.691 2953.57,591.691C2966.36,591.691 2976.75,602.033 2976.83,614.802L2976.83,614.953L2930.31,614.953Z" style="fill:rgb(118,172,244);stroke:rgb(4,106,254);stroke-width:0.87px;"/>
                    </g>
                </g>
                <g transform="matrix(0.726677,0,0,0.819459,-2380.4,1357.74)">
                    <g transform="matrix(1.03236,0,0,1,-73.8657,23.7556)">
                        <rect x="2933.79" y="413.568" width="46.524" height="83.869" style="fill:rgb(198,223,254);stroke:rgb(4,106,254);stroke-width:0.87px;"/>
                    </g>
                    <g transform="matrix(1.03236,0,0,1,-70.2717,-177.629)">
                        <path d="M2930.31,614.953C2930.31,602.114 2940.73,591.691 2953.57,591.691C2966.36,591.691 2976.75,602.033 2976.83,614.802L2976.83,614.953L2930.31,614.953Z" style="fill:rgb(118,172,244);stroke:rgb(4,106,254);stroke-width:0.87px;"/>
                    </g>
                </g>
            </g>
        </g>
    </g>
</svg>
